<svg width="674" height="297" viewBox="0 0 674 297" fill="none" xmlns="http://www.w3.org/2000/svg">
<path d="M180.68 35.8788C180.68 55.6941 164.615 71.7576 144.798 71.7576C124.981 71.7576 108.917 55.6941 108.917 35.8788C108.917 16.0635 124.981 0 144.798 0C164.615 0 180.68 16.0635 180.68 35.8788Z" fill="#FFFFFF"/>
<path d="M369.657 35.8788C369.657 55.6941 353.592 71.7576 333.775 71.7576C313.958 71.7576 297.894 55.6941 297.894 35.8788C297.894 16.0635 313.958 0 333.775 0C353.592 0 369.657 16.0635 369.657 35.8788Z" fill="#FFFFFF"/>
<path d="M558.634 35.8788C558.634 55.6941 542.569 71.7576 522.753 71.7576C502.936 71.7576 486.871 55.6941 486.871 35.8788C486.871 16.0635 502.936 0 522.753 0C542.569 0 558.634 16.0635 558.634 35.8788Z" fill="#FFFFFF"/>
<path d="M68.2805 88.1949C80.5282 88.1949 91.8572 89.8278 102.268 93.0935C112.882 96.1552 121.966 100.952 129.519 107.483C137.071 114.015 142.991 122.281 147.278 132.283C151.564 142.08 153.708 153.816 153.708 167.492C153.708 180.555 151.871 191.985 148.196 201.782C144.522 211.58 139.317 219.846 132.581 226.582C125.844 233.113 117.679 238.012 108.085 241.278C98.6955 244.544 88.1829 246.176 76.5477 246.176C67.7702 246.176 59.6051 244.85 52.0524 242.196V293.02C50.0112 293.632 46.7451 294.245 42.2543 294.857C37.7635 295.673 33.1707 296.081 28.4757 296.081C23.9849 296.081 19.9024 295.775 16.2281 295.163C12.7579 294.551 9.79811 293.326 7.34858 291.489C4.89905 289.652 3.06191 287.101 1.83714 283.835C0.612382 280.773 0 276.691 0 271.588V124.629C0 119.118 1.1227 114.627 3.3681 111.157C5.81763 107.687 9.08366 104.524 13.1662 101.666C19.4941 97.584 27.353 94.3182 36.7429 91.8689C46.1327 89.4195 56.6453 88.1949 68.2805 88.1949ZM68.8929 205.15C89.918 205.15 100.431 192.597 100.431 167.492C100.431 154.429 97.7769 144.734 92.4696 138.406C87.3664 132.079 79.9158 128.915 70.1177 128.915C66.2393 128.915 62.7691 129.425 59.7072 130.446C56.6453 131.262 53.9916 132.283 51.7462 133.507V200.864C54.1958 202.089 56.8494 203.109 59.7072 203.926C62.565 204.742 65.6269 205.15 68.8929 205.15Z" fill="#FFFFFF"/>
<path d="M243.395 208.518C246.866 208.518 250.642 208.212 254.724 207.6C259.011 206.783 262.175 205.763 264.216 204.538V180.045L242.171 181.882C236.455 182.29 231.76 183.515 228.086 185.556C224.412 187.597 222.574 190.658 222.574 194.741C222.574 198.823 224.105 202.191 227.167 204.844C230.433 207.293 235.843 208.518 243.395 208.518ZM240.946 88.1949C251.969 88.1949 261.971 89.3175 270.953 91.5627C280.138 93.8079 287.895 97.2778 294.223 101.972C300.755 106.463 305.756 112.28 309.226 119.424C312.697 126.364 314.432 134.63 314.432 144.223V212.804C314.432 218.111 312.901 222.5 309.839 225.97C306.981 229.235 303.511 232.093 299.428 234.542C286.16 242.502 267.482 246.483 243.395 246.483C232.577 246.483 222.779 245.462 214.001 243.421C205.428 241.38 197.977 238.318 191.649 234.236C185.525 230.154 180.728 224.949 177.258 218.622C173.992 212.294 172.359 204.946 172.359 196.578C172.359 182.494 176.544 171.676 184.913 164.124C193.282 156.572 206.244 151.877 223.799 150.04L263.91 145.754V143.611C263.91 137.692 261.256 133.507 255.949 131.058C250.846 128.405 243.395 127.078 233.597 127.078C225.84 127.078 218.288 127.894 210.939 129.527C203.591 131.16 196.956 133.201 191.037 135.651C188.383 133.814 186.138 131.058 184.301 127.384C182.463 123.506 181.545 119.526 181.545 115.444C181.545 110.137 182.77 105.953 185.219 102.891C187.873 99.6251 191.853 96.8696 197.161 94.6244C203.08 92.3792 210.021 90.7463 217.982 89.7257C226.147 88.7052 233.801 88.1949 240.946 88.1949Z" fill="#FFFFFF"/>
<path d="M418.826 88.1949C430.461 88.1949 440.974 89.7257 450.364 92.7874C459.958 95.6449 468.021 99.421 474.553 104.116C478.635 106.973 481.799 110.137 484.045 113.607C486.494 117.077 487.719 121.567 487.719 127.078V234.236C487.719 245.054 485.678 254.341 481.595 262.097C477.512 270.057 471.899 276.589 464.755 281.692C457.814 286.999 449.547 290.877 439.953 293.326C430.563 295.775 420.459 297 409.64 297C391.065 297 376.47 294.449 365.855 289.346C355.24 284.447 349.933 276.385 349.933 265.159C349.933 260.464 350.852 256.28 352.689 252.606C354.73 249.136 356.975 246.483 359.425 244.646C365.345 247.911 371.979 250.667 379.327 252.912C386.88 255.157 394.637 256.28 402.598 256.28C413.621 256.28 422.398 254.443 428.93 250.769C435.462 247.095 438.728 241.176 438.728 233.011V228.113C430.359 231.787 420.153 233.624 408.109 233.624C398.924 233.624 390.146 232.297 381.777 229.644C373.612 226.786 366.365 222.5 360.037 216.785C353.913 210.865 348.912 203.313 345.034 194.128C341.36 184.943 339.523 174.023 339.523 161.369C339.523 148.918 341.462 138.1 345.34 128.915C349.423 119.73 354.934 112.178 361.874 106.259C369.019 100.135 377.388 95.6449 386.982 92.7874C396.78 89.7257 407.395 88.1949 418.826 88.1949ZM437.81 132.589C436.381 131.772 434.238 130.956 431.38 130.14C428.726 129.323 425.358 128.915 421.275 128.915C411.273 128.915 403.721 131.772 398.617 137.488C393.718 142.999 391.269 150.959 391.269 161.369C391.269 173.207 393.718 181.78 398.617 187.086C403.721 192.189 410.151 194.741 417.907 194.741C426.277 194.741 432.911 192.802 437.81 188.923V132.589Z" fill="#FFFFFF"/>
<path d="M674 167.186C674 179.841 672.061 191.169 668.182 201.17C664.304 210.967 658.793 219.234 651.648 225.97C644.708 232.705 636.339 237.808 626.54 241.278C616.742 244.748 605.822 246.483 593.778 246.483C581.735 246.483 570.814 244.646 561.016 240.972C551.218 237.298 542.746 232.093 535.602 225.357C528.661 218.417 523.252 210.049 519.374 200.252C515.495 190.454 513.556 179.432 513.556 167.186C513.556 155.143 515.495 144.223 519.374 134.426C523.252 124.629 528.661 116.362 535.602 109.626C542.746 102.687 551.218 97.3799 561.016 93.7059C570.814 90.0319 581.735 88.1949 593.778 88.1949C605.822 88.1949 616.742 90.1339 626.54 94.012C636.339 97.686 644.708 102.993 651.648 109.933C658.793 116.668 664.304 124.935 668.182 134.732C672.061 144.529 674 155.347 674 167.186ZM566.833 167.186C566.833 179.636 569.181 189.23 573.876 195.965C578.775 202.497 585.511 205.763 594.084 205.763C602.658 205.763 609.19 202.395 613.68 195.659C618.375 188.923 620.723 179.432 620.723 167.186C620.723 154.939 618.375 145.55 613.68 139.018C608.986 132.283 602.351 128.915 593.778 128.915C585.205 128.915 578.571 132.283 573.876 139.018C569.181 145.55 566.833 154.939 566.833 167.186Z" fill="#FFFFFF"/>
</svg>
