<svg width="199" height="59" viewBox="0 0 199 59" fill="none" xmlns="http://www.w3.org/2000/svg" role="img" aria-labelledby="pago-logo-title">
<title id="pago-logo-title">Pago</title>
<path d="M198.48 18.5697C198.818 20.1194 198.649 21.3591 198.987 23.2962C199.071 24.0711 198.733 25.4658 198.649 26.8605C198.649 30.7347 195.946 35.2287 193.074 38.0956C189.188 41.9698 184.542 43.6745 179.727 45.0692C177.7 45.689 177.7 45.4566 176.011 45.4566C174.237 45.3791 173.139 45.7665 171.618 44.7592C170.858 44.2943 168.831 44.6818 167.902 44.4493C166.297 43.9069 164.1 43.287 162.918 42.4347C160.891 41.1175 158.272 39.5678 157.005 38.3281C155.738 37.0883 154.217 35.4612 154.386 34.4539C154.471 33.4466 154.471 33.834 153.964 33.2916C153.457 32.8267 153.288 32.4393 152.95 31.8194C152.612 31.1996 152.106 29.6499 152.021 29.185C152.021 27.7128 152.021 27.0154 152.359 25.8532C152.697 24.6134 151.768 23.2187 151.599 22.3664C151.345 20.7393 151.852 19.9644 151.937 18.4922C151.937 18.0273 152.106 17.0975 152.359 16.6326C152.781 15.9353 153.457 14.0756 153.711 13.6107C156.076 9.89151 157.174 8.49681 160.384 5.70739C162.073 4.23519 163.256 3.92526 166.297 2.60804C167.564 2.06565 174.152 0.593457 176.433 0.980875C177.869 1.21333 179.221 1.05836 180.488 1.36829C181.163 1.52326 181.839 1.8332 182.43 2.06565C183.697 2.53055 184.796 2.2981 185.978 2.99546C187.752 4.00274 189.61 4.77758 191.131 6.01732C193.327 7.72197 195.439 10.5114 196.284 12.6034C197.213 14.773 197.466 15.0829 198.057 17.175C198.057 17.4074 198.311 18.0273 198.48 18.5697ZM173.392 33.7565C174.321 33.989 175.166 33.989 176.095 33.7565C178.714 33.0592 180.91 31.5095 182.008 29.185C183.951 25.0009 183.106 20.2743 181.163 16.4776C180.15 14.5405 178.967 14.6955 177.531 13.9982C176.095 13.3008 175.25 13.3783 173.983 13.6882C173.139 13.8432 172.125 14.0756 171.534 14.3856C169 15.6253 168.155 18.5697 167.479 20.5068C166.466 23.6062 166.972 26.1631 167.986 28.7976C168.915 31.432 170.774 32.9042 173.392 33.7565ZM178.207 39.1029C178.038 38.4056 177.447 38.638 177.193 38.5605C176.94 38.483 176.94 38.483 176.94 38.5605C175.757 38.8705 175.504 39.3354 176.433 40.3427C177.362 41.3499 178.46 39.8778 178.207 39.1029ZM162.327 29.8049C162.327 29.4174 162.496 29.4174 162.411 29.03C162.411 28.6426 161.989 28.2552 161.397 28.4101C160.891 28.5651 160.468 29.2625 160.722 29.8823C160.806 30.0373 161.313 30.7347 161.735 30.6572C162.158 30.5797 162.242 30.1148 162.327 29.8049ZM164.692 7.87694C164.607 7.64448 164.607 7.72197 164.607 7.48952C164.607 7.25706 164.607 6.94713 164.269 6.79216C162.58 6.09481 162.918 8.34184 163.931 8.96171C164.016 9.03919 164.269 8.80674 164.354 8.65177C164.438 8.41932 164.776 8.10939 164.692 7.87694ZM186.738 12.9134C187.245 12.9909 187.583 12.371 187.668 11.9836C187.668 11.5962 187.33 10.8988 186.992 10.9763C185.725 11.2087 185.133 12.7584 186.738 12.9134ZM162.58 18.7247C162.411 18.9571 162.242 19.1896 162.242 19.422C162.242 19.732 162.496 20.0419 162.749 20.1969C163.002 20.3518 162.918 20.3518 163.256 20.1194C163.594 19.9644 163.425 18.9571 163.087 18.8022C162.749 18.6472 162.749 18.5697 162.58 18.7247ZM184.627 36.7009C184.373 36.7784 184.289 36.9334 184.373 37.1658C184.373 37.3208 184.542 37.3983 184.711 37.4758C184.796 37.6307 184.965 37.7857 185.133 37.7082C185.302 37.6307 185.218 37.3983 185.218 37.2433C185.302 37.0109 185.133 36.8559 185.049 36.7009C184.88 36.6234 184.796 36.7009 184.627 36.7009Z" fill="#72CDFE"/>
<path d="M145.667 25.1557C145.244 27.9451 145.836 30.812 145.92 33.6789C145.92 37.0882 145.667 40.1876 144.907 43.5194C143.893 47.781 142.795 51.7327 138.656 54.4446C137.389 55.2969 136.037 56.3817 134.432 56.7691C132.827 57.234 131.56 58.0863 129.955 58.2413C127.844 58.3963 126.577 58.7837 124.38 58.7837C124.127 58.7837 123.451 58.9387 122.944 58.9387C119.819 59.1711 116.609 58.7062 113.484 58.1638C111.71 57.8539 110.274 57.0791 108.584 56.5367C106.895 55.9943 105.29 54.3671 104.361 53.2049C103.854 52.6625 103.939 52.3525 103.516 52.0426C102.334 51.1903 101.996 50.2605 101.658 49.0982C101.489 48.6333 101.236 48.2459 101.236 47.781C101.32 46.5413 101.827 45.8439 102.925 45.0691C104.107 44.3717 105.29 43.8293 106.726 43.7518C108.247 43.7518 109.936 43.2869 111.541 43.132C111.625 43.132 111.879 43.132 111.963 42.977C111.963 42.822 111.794 42.7446 111.71 42.6671C109.345 40.8849 106.811 39.8777 105.121 37.5531C104.952 37.2432 104.952 36.7783 105.037 36.4684C105.206 36.1584 104.868 36.0809 104.783 35.926C104.699 35.771 104.614 35.926 104.53 35.926C104.107 36.0809 103.854 35.926 103.516 35.616C101.996 33.9114 102.08 33.0591 101.067 30.6571C100.137 28.7975 99.5461 25.2332 99.715 22.6762C99.7995 19.1895 100.475 16.2451 101.996 12.8358C103.516 9.42651 106.811 5.00993 110.358 3.53773C113.146 2.29799 114.244 1.75561 116.694 1.2907C118.298 1.05825 119.312 0.748315 120.664 0.903285C122.606 1.05825 124.042 1.05825 125.816 1.60064C126.745 1.91058 127.928 1.91058 128.097 2.91786C128.097 3.15032 128.35 3.15032 128.604 3.30529C128.857 3.38277 129.111 3.46025 129.195 3.07283C129.28 2.7629 129.617 2.7629 129.871 2.84038C132.405 3.38277 133.334 2.14302 135.868 1.91058C136.544 1.83309 137.811 1.60064 138.571 1.67812C139.416 1.67812 140.43 1.83309 141.105 1.83309C141.781 1.83309 142.204 1.67812 142.795 1.83309C144.315 2.14302 145.075 3.30529 145.329 4.69999C145.836 7.87683 145.498 11.1312 145.836 14.308C145.92 15.0053 145.667 15.7802 145.582 16.3226C145.582 17.8722 146.005 18.8795 145.751 20.4292C145.582 21.9014 145.92 23.5286 145.667 25.1557ZM108.078 17.3299C108.247 17.0199 107.824 16.71 107.486 16.71C106.557 16.7875 106.388 18.2597 106.811 18.5696C107.148 18.8795 107.064 18.5696 107.402 18.4921C107.74 18.3371 107.993 17.7173 108.078 17.3299ZM111.794 33.214C111.879 32.9816 111.879 32.8266 111.794 32.6717C111.456 31.8193 111.203 32.0518 110.527 31.6644L110.443 31.7418C110.189 32.5167 110.274 32.6717 110.95 33.2915C111.119 33.524 111.71 33.4465 111.794 33.214ZM111.119 50.338C111.203 50.183 111.034 50.028 110.865 49.9506C110.781 49.7956 110.527 49.7181 110.358 49.7956C109.683 50.183 110.527 50.8804 110.865 50.9578C111.119 51.0353 111.119 50.9578 111.119 50.8029C111.203 50.7254 111.119 50.4929 111.119 50.338ZM128.604 10.4338C128.435 10.8212 128.773 11.1312 129.28 11.2861C129.364 11.2861 130.124 11.1312 130.124 10.9762C130.209 10.2788 129.026 9.65896 128.604 10.4338ZM129.111 45.1466C129.871 44.3717 130.293 43.3644 129.955 42.5121C128.942 39.7227 123.113 43.4419 120.579 43.4419C119.481 43.5194 117.961 43.6744 116.778 43.6744C116.356 43.7518 116.018 43.7518 116.102 44.0618C116.44 45.0691 117.454 46.8512 118.045 47.1611C119.397 47.8585 121.17 48.3234 122.1 48.2459C125.478 47.8585 127.168 47.2386 129.111 45.1466ZM123.029 35.926C122.522 35.8485 122.1 36.8558 122.691 37.1657C123.282 37.5531 123.789 36.0035 123.029 35.926ZM130.04 26.7054C130.209 25.9306 131.138 25.9306 131.053 25.1557C130.885 23.6835 130.8 22.2888 130.716 20.6617C130.631 19.8093 130.124 18.1047 129.955 17.3299C129.195 14.463 127.168 13.4557 124.211 12.3709C121.17 11.3636 117.369 13.9206 115.933 16.3226C113.653 20.2742 114.582 24.7683 116.44 28.2551C117.369 30.1147 118.383 30.3471 119.734 30.812C122.353 31.7418 122.606 31.3544 125.394 31.1995C127.168 31.122 129.617 28.41 130.04 26.7054ZM133.165 13.0682C133.841 13.0682 134.01 12.4484 133.25 12.2934C132.996 12.2934 132.743 12.5259 132.658 12.6033C132.574 12.7583 132.996 13.0682 133.165 13.0682ZM137.642 33.0591C138.064 32.7491 137.98 32.1293 137.558 31.9743C137.135 31.8193 136.713 31.7418 136.375 31.8193C135.953 31.8193 135.784 31.9743 135.784 32.2842C135.615 33.1366 136.882 33.4465 137.642 33.0591Z" fill="#72CDFE"/>
<path d="M89.8134 5.47484C93.5301 9.34903 93.2767 13.9981 93.9525 18.6471C94.2059 20.3517 93.4456 21.2041 93.868 22.6762C94.2903 24.2259 93.7835 25.6206 93.868 27.2478C93.868 28.2551 93.1078 29.3399 93.6991 30.5021C94.4593 32.0518 93.6146 33.7564 93.3612 35.0737C93.1922 36.4684 94.1214 36.3134 94.1214 37.3982C94.2059 39.8002 95.9798 40.73 93.6991 43.132C92.9388 43.9843 90.3202 44.8366 88.4619 44.6042C87.3638 44.4492 85.0831 45.379 84.1539 44.0618C83.9005 43.6744 83.3092 43.5194 82.7179 43.7519C81.0285 44.3717 79.846 42.6671 77.8187 43.4419C76.8895 43.7518 75.4535 44.2942 74.4399 44.2942C73.4262 44.3717 72.8349 44.8366 71.9058 44.9916C66.4997 46.0764 61.0091 45.224 56.7011 42.0472C53.3223 39.4128 51.5485 36.1584 51.2951 32.2842C50.9572 27.5577 53.7447 23.6835 57.6303 21.2815C60.3334 19.5769 61.7694 19.7319 64.8103 18.8021C65.655 18.5696 67.6823 19.0345 68.7804 18.3372C69.794 17.7173 71.6524 18.3372 72.7505 17.8723C73.8486 17.4073 74.3554 18.1822 75.2001 18.0272C75.9603 17.8723 76.3827 17.4073 76.805 17.0199C77.2274 16.71 76.974 16.6325 77.2274 16.1676C77.5653 15.7027 77.9876 15.1603 77.9876 14.5404C77.8187 12.2159 75.2001 10.6663 72.9194 11.1312C70.7232 11.5961 68.7804 12.4484 67.7667 14.0755C66.7531 15.7027 66.0773 16.1676 64.3879 16.555C62.6141 17.0199 61.347 16.7875 59.911 16.865C58.7284 16.9424 57.8837 17.0974 56.8701 16.9424C55.0962 16.71 53.7447 16.4001 53.0689 14.9279C52.1398 12.6033 53.2379 11.5961 53.9136 9.34903C54.2515 8.18677 56.2788 6.63709 57.039 5.93974C58.8129 4.15761 60.9247 3.2278 62.6141 2.45297C64.3035 1.60065 65.1482 1.29071 66.3307 1.13574C67.9357 0.903291 68.8648 0.283419 70.0474 0.283419C72.2436 0.360901 73.3418 -0.258966 75.538 0.128453C80.6907 1.05826 86.0967 1.60065 89.8134 5.47484ZM67.8512 29.5723C66.5842 30.5796 66.1618 31.2769 66.4152 32.9041C66.5841 33.524 66.922 34.0664 67.9357 34.2988C68.8648 34.5313 70.7232 34.8412 71.7368 34.7637C72.7505 34.6088 72.8349 35.4611 73.5952 35.1511C73.8486 35.0737 74.2709 35.0737 74.3554 34.6862C75.2846 32.5942 76.805 31.8193 77.2274 29.1849C77.3119 28.7975 76.805 28.1001 76.2982 27.9451C74.8622 27.4802 73.3418 27.7127 72.0747 27.9451C70.3008 28.3326 69.1183 28.6425 67.8512 29.5723ZM87.3638 26.473C87.7861 25.4657 86.5191 25.0008 85.5055 24.9233C85.1676 24.9233 84.4918 25.0782 84.3229 25.4657C84.0695 25.8531 83.985 26.473 83.985 26.8604C84.0695 27.2478 83.9005 27.3253 84.4073 27.2478C85.3365 27.0153 86.9414 27.4802 87.3638 26.473ZM87.1949 16.9424C86.688 17.2524 86.5191 17.7173 86.5191 18.2597C86.4346 18.3372 86.5191 18.3372 86.5191 18.5696C86.6036 18.8021 87.1104 19.112 87.4483 19.1895C88.2085 19.4219 88.293 18.7246 88.3774 18.5696C88.6308 17.6398 88.293 16.1676 87.1949 16.9424ZM91.2494 38.328C91.7562 38.328 92.8544 36.7008 91.8407 36.6233C91.5028 36.5459 91.165 36.7008 90.8271 36.7783C90.4047 36.8558 90.1513 37.3207 90.4047 37.6306C90.7426 37.9406 90.7426 38.328 91.2494 38.328ZM72.666 40.8849C71.9902 40.6525 71.23 41.5048 71.3145 42.1247C71.3989 42.6671 71.9902 43.132 72.4126 42.7446C72.9194 42.4346 73.3418 41.1174 72.666 40.8849ZM89.3066 25.2332C89.56 25.0008 89.9824 24.7683 89.8979 24.3034C89.729 23.2961 88.7153 24.4584 88.7998 25.0782C88.7998 25.2332 89.0532 25.3882 89.3066 25.2332ZM79.7615 18.1822C79.4236 18.2597 79.3391 18.4921 79.3391 18.7246C79.3391 18.957 79.3391 19.4219 79.677 19.4219C80.0994 19.4994 80.2683 19.0345 80.2683 18.7246C80.2683 18.4921 80.0149 18.1047 79.7615 18.1822Z" fill="#72CDFE"/>
<path d="M16.7447 45.0691C16.1534 46.8512 16.2378 51.1128 16.2378 52.895C16.3223 54.6771 15.9844 54.987 15.5621 56.4592C15.0552 57.8539 12.4367 58.0089 11.3386 57.9314C9.31128 57.9314 9.05787 57.9314 6.86165 58.0864C6.27036 58.1639 4.32754 57.6215 3.06049 57.699C1.87791 57.8539 0.272977 56.0718 0.272977 55.297C0.272977 52.74 0.104037 52.0426 0.357447 49.4857C0.357447 49.0208 0.188507 47.0837 0.357447 45.9989C0.357447 45.689 0.441917 45.2241 0.357447 44.2168C-0.402784 36.9333 0.272977 29.7273 0.357447 21.669C0.357447 20.5067 0.779798 15.5478 0.272977 13.6881C0.104037 13.3007 0.188507 12.3709 0.272977 11.9835C0.441917 10.4338 0.104037 8.80667 0.272977 7.41196C0.441917 5.93977 0.441917 4.70002 1.54003 3.8477C2.55367 2.99538 4.07413 2.06558 5.0033 1.98809C7.19953 1.75564 8.29764 1.60067 10.2405 1.75564C11.2541 1.83312 12.1833 1.83312 12.859 2.76293C13.1124 3.15035 14.2105 3.61525 14.8018 3.77022C14.9708 3.8477 15.731 4.08016 16.1534 3.92519C16.5757 3.8477 16.7446 3.69274 16.9981 3.30532C18.1806 1.91061 20.1235 1.67816 21.9818 1.21326C22.4041 1.05829 23.5867 0.980802 24.178 1.05829C25.6985 1.13577 27.05 0.670867 28.4015 1.13577C30.2599 1.75564 32.1182 1.36822 33.7231 2.68545C34.23 3.07287 34.6523 4.23512 35.7504 3.8477C36.3417 3.61525 37.2709 4.23512 37.6088 4.39009C39.9739 5.62983 43.6061 10.2789 44.1974 11.5961C45.4645 14.618 45.549 14.463 46.2247 16.9425C46.3937 17.4074 46.816 18.9571 46.816 19.267C46.9005 20.9716 47.4918 22.7538 46.985 24.226C46.3937 25.6981 47.0694 26.9379 46.3937 28.4876C45.9713 29.5723 45.8868 30.8896 45.549 32.0518C45.2111 33.2141 44.6198 34.2988 44.0285 35.3836C42.508 37.8631 40.9876 39.8002 38.4535 41.6598C34.4834 44.4492 29.0773 46.0764 24.347 45.2241C21.9818 44.7592 21.5594 44.8366 19.5322 44.3717C18.5185 44.0618 17.3359 43.287 16.7447 45.0691ZM32.0337 23.4511C32.0337 22.5213 31.7803 21.7465 31.7803 20.7392C31.7803 19.1895 31.189 18.1822 30.4288 16.6325C29.8375 15.4703 28.7394 14.1531 27.3879 13.5332C26.7966 13.3007 26.2053 13.2232 25.614 13.0683C23.5867 12.7583 22.4886 12.6809 20.2924 12.9133C18.6875 13.1458 18.4341 14.8504 17.6738 16.0902C16.9981 17.3299 16.4912 19.0345 16.2378 20.1968C15.8999 21.824 16.0689 22.9087 16.0689 24.226C15.9844 26.163 16.4068 27.1703 16.7447 29.1074C16.9981 30.6571 18.0117 31.9743 19.4477 33.1366C20.8837 34.2988 22.4886 34.3763 24.4314 34.2214C26.3742 34.0664 28.3171 33.1366 29.6686 31.6644C30.9356 30.1922 31.5269 28.1001 31.6959 26.0856C31.6959 25.3107 32.1182 24.3034 32.0337 23.4511ZM6.69271 47.5486C6.18589 48.091 6.27036 49.7956 7.62188 49.9506C8.88893 49.4082 8.55105 48.4784 8.80446 47.3936C8.88893 47.2386 8.88893 47.1612 8.71999 47.0062C8.55105 46.9287 8.38211 46.9287 7.95976 47.0062C7.62188 47.1612 7.284 47.0062 6.69271 47.5486ZM3.65178 7.95435C4.07413 7.79938 4.07413 7.17951 4.07413 7.02454C4.07413 6.55964 4.07413 5.39738 3.3139 5.55235C2.63814 5.70732 2.38473 8.26428 3.65178 7.95435ZM13.2814 30.6571C13.1124 30.8896 13.1969 31.0445 13.1124 31.4319C13.1124 31.8194 13.5348 32.6717 14.1261 32.2843C15.2242 31.6644 14.2105 29.5723 13.2814 30.6571ZM35.0747 9.73648C33.9766 9.89144 34.4834 11.1312 35.2436 11.4411C35.3281 11.4411 35.5815 11.5186 35.666 11.3636C36.0038 10.6663 36.1728 9.58151 35.0747 9.73648ZM34.7368 24.5359C34.5678 25.0008 34.5678 25.8531 34.9902 26.0081C35.497 26.163 35.4125 26.0856 35.7504 25.7756C36.0038 25.5432 35.9194 24.226 35.1591 24.226C34.9057 24.226 34.8213 24.3809 34.7368 24.5359ZM10.156 13.8431C9.73363 13.6107 9.14234 13.4557 8.71999 13.5332C7.79082 13.8431 8.1287 14.5405 8.88893 14.618C9.05787 14.618 9.05787 14.463 9.14234 14.463C9.56469 14.5405 9.73363 14.2305 9.98704 14.3855C10.2404 14.5405 10.156 14.463 10.3249 14.308C10.4939 14.2305 10.2405 13.9206 10.156 13.8431ZM5.76353 11.6736C6.4393 11.1312 5.67906 9.42654 5.08777 10.1239C4.83436 10.5113 5.08777 11.0537 5.0033 11.3636C5.0033 11.5961 5.08777 11.4411 5.17224 11.5961C5.34118 11.6736 5.59459 11.8285 5.76353 11.6736ZM5.25671 23.9935C4.83436 24.3034 5.0033 24.3809 4.91883 24.8458C4.83436 25.3107 5.51012 25.7756 5.76353 25.4657C6.27035 24.9233 6.01694 23.3736 5.25671 23.9935ZM19.5322 41.5823C20.2924 41.5048 20.039 40.73 19.6166 40.6525C19.1943 40.6525 19.0253 40.885 18.9409 41.1174C18.9409 41.3499 19.2788 41.5823 19.5322 41.5823ZM35.0747 15.7027C34.6523 15.7802 34.5678 16.4001 34.9902 16.4776C35.4125 16.4776 35.497 15.7027 35.0747 15.7027ZM18.9409 8.10931C18.9409 8.34177 18.9409 8.49673 19.2788 8.41925C19.5322 8.41925 19.6166 8.26428 19.6166 7.87686C19.7011 7.48944 19.0253 7.87686 18.9409 8.10931Z" fill="#72CDFE"/>
</svg>
