<svg width="707" height="205" viewBox="0 0 707 205" fill="none" xmlns="http://www.w3.org/2000/svg">
<path d="M112.873 0C124.873 0 135.973 1.6 146.173 4.80001C156.573 7.80001 165.473 12.5 172.873 18.9C180.273 25.3 186.073 33.4 190.273 43.2C194.473 52.8 196.573 64.3 196.573 77.7C196.573 90.5 194.773 101.7 191.173 111.3C187.573 120.9 182.473 129 175.873 135.6C169.273 142 161.273 146.8 151.873 150C142.673 153.2 132.373 154.8 120.973 154.8C112.373 154.8 104.373 153.5 96.9731 150.9V200.7C94.9731 201.3 91.773 201.9 87.373 202.5C82.973 203.3 78.473 203.7 73.873 203.7C69.473 203.7 65.473 203.4 61.873 202.8C58.473 202.2 55.5731 201 53.173 199.2C50.773 197.4 48.973 194.9 47.773 191.7C46.573 188.7 45.973 184.7 45.973 179.7V35.7C45.973 30.3 47.073 25.9 49.273 22.5C51.673 19.1 54.873 16 58.873 13.2C65.073 9.20001 72.773 6.00001 81.973 3.60001C91.173 1.2 101.473 0 112.873 0ZM113.473 114.6C134.073 114.6 144.373 102.3 144.373 77.7C144.373 64.9 141.773 55.4 136.573 49.2C131.573 43 124.273 39.9 114.673 39.9C110.873 39.9 107.473 40.4 104.473 41.4C101.473 42.2 98.873 43.2 96.673 44.4V110.4C99.0731 111.6 101.673 112.6 104.473 113.4C107.273 114.2 110.273 114.6 113.473 114.6Z" fill="#72CDFE"/>
<path d="M284.447 117.9C287.847 117.9 291.547 117.6 295.547 117C299.747 116.2 302.847 115.2 304.847 114V90L283.247 91.8C277.647 92.2 273.047 93.4 269.447 95.4C265.847 97.4 264.047 100.4 264.047 104.4C264.047 108.4 265.547 111.7 268.547 114.3C271.747 116.7 277.047 117.9 284.447 117.9ZM282.047 0C292.847 0 302.647 1.1 311.447 3.30001C320.447 5.50001 328.047 8.9 334.247 13.5C340.647 17.9 345.547 23.6 348.947 30.6C352.347 37.4 354.047 45.5 354.047 54.9V122.1C354.047 127.3 352.547 131.6 349.547 135C346.747 138.2 343.347 141 339.347 143.4C326.347 151.2 308.047 155.1 284.447 155.1C273.847 155.1 264.247 154.1 255.647 152.1C247.247 150.1 239.947 147.1 233.747 143.1C227.747 139.1 223.047 134 219.647 127.8C216.447 121.6 214.847 114.4 214.847 106.2C214.847 92.4 218.947 81.8 227.147 74.4C235.347 67 248.047 62.4 265.247 60.6L304.547 56.4V54.3C304.547 48.5 301.947 44.4 296.747 42C291.747 39.4 284.447 38.1 274.847 38.1C267.247 38.1 259.847 38.9 252.647 40.5C245.447 42.1 238.947 44.1 233.147 46.5C230.547 44.7 228.347 42 226.547 38.4C224.747 34.6 223.847 30.7 223.847 26.7C223.847 21.5 225.047 17.4 227.447 14.4C230.047 11.2 233.947 8.50001 239.147 6.30001C244.947 4.10001 251.747 2.50001 259.547 1.50001C267.547 0.500003 275.047 0 282.047 0Z" fill="#72CDFE"/>
<path d="M456.331 0C467.731 0 478.031 1.5 487.231 4.5C496.631 7.3 504.531 11 510.931 15.6C514.931 18.4 518.031 21.5 520.231 24.9C522.631 28.3 523.831 32.7 523.831 38.1V143.1C523.831 153.7 521.831 162.8 517.831 170.4C513.831 178.2 508.331 184.6 501.331 189.6C494.531 194.8 486.431 198.6 477.031 201C467.831 203.4 457.931 204.6 447.331 204.6C429.131 204.6 414.831 202.1 404.431 197.1C394.031 192.3 388.831 184.4 388.831 173.4C388.831 168.8 389.731 164.7 391.531 161.1C393.531 157.7 395.731 155.1 398.131 153.3C403.931 156.5 410.431 159.2 417.631 161.4C425.031 163.6 432.631 164.7 440.431 164.7C451.231 164.7 459.831 162.9 466.231 159.3C472.631 155.7 475.831 149.9 475.831 141.9V137.1C467.631 140.7 457.631 142.5 445.831 142.5C436.831 142.5 428.231 141.2 420.031 138.6C412.031 135.8 404.931 131.6 398.731 126C392.731 120.2 387.831 112.8 384.031 103.8C380.431 94.8 378.631 84.1 378.631 71.7C378.631 59.5 380.531 48.9 384.331 39.9C388.331 30.9 393.731 23.5 400.531 17.7C407.531 11.7 415.731 7.3 425.131 4.5C434.731 1.5 445.131 0 456.331 0ZM474.931 43.5C473.531 42.7 471.431 41.9 468.631 41.1C466.031 40.3 462.731 39.9 458.731 39.9C448.931 39.9 441.531 42.7 436.531 48.3C431.731 53.7 429.331 61.5 429.331 71.7C429.331 83.3 431.731 91.7 436.531 96.9C441.531 101.9 447.831 104.4 455.431 104.4C463.631 104.4 470.131 102.5 474.931 98.7V43.5Z" fill="#72CDFE"/>
<path d="M706.346 77.4C706.346 89.8 704.446 100.9 700.646 110.7C696.846 120.3 691.446 128.4 684.446 135C677.646 141.6 669.446 146.6 659.846 150C650.246 153.4 639.546 155.1 627.746 155.1C615.946 155.1 605.246 153.3 595.646 149.7C586.046 146.1 577.746 141 570.746 134.4C563.946 127.6 558.646 119.4 554.846 109.8C551.046 100.2 549.146 89.4 549.146 77.4C549.146 65.6 551.046 54.9 554.846 45.3C558.646 35.7 563.946 27.6 570.746 21C577.746 14.2 586.046 9.00001 595.646 5.40001C605.246 1.8 615.946 0 627.746 0C639.546 0 650.246 1.9 659.846 5.70001C669.446 9.30001 677.646 14.5 684.446 21.3C691.446 27.9 696.846 36 700.646 45.6C704.446 55.2 706.346 65.8 706.346 77.4ZM601.346 77.4C601.346 89.6 603.646 99 608.246 105.6C613.046 112 619.646 115.2 628.046 115.2C636.446 115.2 642.846 111.9 647.246 105.3C651.846 98.7 654.146 89.4 654.146 77.4C654.146 65.4 651.846 56.2 647.246 49.8C642.646 43.2 636.146 39.9 627.746 39.9C619.346 39.9 612.846 43.2 608.246 49.8C603.646 56.2 601.346 65.4 601.346 77.4Z" fill="#72CDFE"/>
<path d="M30 22.8C30 31.0843 23.2843 37.8 15 37.8C6.71573 37.8 0 31.0843 0 22.8C0 14.5157 6.71573 7.80001 15 7.80001C23.2843 7.80001 30 14.5157 30 22.8Z" fill="#72CDFE"/>
<path d="M30 101.8C30 110.084 23.2843 116.8 15 116.8C6.71573 116.8 0 110.084 0 101.8C0 93.5157 6.71573 86.8 15 86.8C23.2843 86.8 30 93.5157 30 101.8Z" fill="#72CDFE"/>
<path d="M30 180.8C30 189.084 23.2843 195.8 15 195.8C6.71573 195.8 0 189.084 0 180.8C0 172.516 6.71573 165.8 15 165.8C23.2843 165.8 30 172.516 30 180.8Z" fill="#72CDFE"/>
</svg>
